<mxfile host="app.diagrams.net" modified="2023-10-11T19:33:41.282Z" agent="Mozilla/5.0 (X11; Linux x86_64; rv:109.0) Gecko/20100101 Firefox/115.0" etag="O0S8amXHVnGMEMw_uP-G" version="22.0.4" type="device">
  <diagram name="Page-1" id="KDSnwi_WtRBWYA6NQgtj">
    <mxGraphModel dx="1434" dy="790" grid="1" gridSize="10" guides="1" tooltips="1" connect="1" arrows="1" fold="1" page="1" pageScale="1" pageWidth="850" pageHeight="1100" math="0" shadow="0">
      <root>
        <mxCell id="0" />
        <mxCell id="1" parent="0" />
        <mxCell id="kvysxvHulO6KygtDhMEB-15" value="" style="rounded=1;whiteSpace=wrap;html=1;" vertex="1" parent="1">
          <mxGeometry x="10" y="60" width="970" height="350" as="geometry" />
        </mxCell>
        <mxCell id="kvysxvHulO6KygtDhMEB-1" value="&lt;div&gt;Header&lt;/div&gt;&lt;div&gt;(10 Bytes)&lt;br&gt;&lt;/div&gt;" style="rounded=0;whiteSpace=wrap;html=1;fillColor=#dae8fc;strokeColor=#6c8ebf;" vertex="1" parent="1">
          <mxGeometry x="40" y="120" width="290" height="40" as="geometry" />
        </mxCell>
        <mxCell id="kvysxvHulO6KygtDhMEB-3" value="&lt;div&gt;Frames&lt;br&gt;&lt;/div&gt;&lt;div&gt;(Variable Bytes)&lt;br&gt;&lt;/div&gt;" style="rounded=0;whiteSpace=wrap;html=1;fillColor=#b0e3e6;strokeColor=#0e8088;" vertex="1" parent="1">
          <mxGeometry x="40" y="160" width="290" height="200" as="geometry" />
        </mxCell>
        <mxCell id="kvysxvHulO6KygtDhMEB-4" value="&lt;div&gt;Header&lt;/div&gt;&lt;div&gt;(10 Bytes)&lt;br&gt;&lt;/div&gt;" style="rounded=0;whiteSpace=wrap;html=1;fillColor=#dae8fc;strokeColor=#6c8ebf;" vertex="1" parent="1">
          <mxGeometry x="350" y="120" width="290" height="40" as="geometry" />
        </mxCell>
        <mxCell id="kvysxvHulO6KygtDhMEB-5" value="&lt;div&gt;Frames&lt;br&gt;&lt;/div&gt;&lt;div&gt;(Variable Bytes)&lt;br&gt;&lt;/div&gt;" style="rounded=0;whiteSpace=wrap;html=1;fillColor=#b0e3e6;strokeColor=#0e8088;" vertex="1" parent="1">
          <mxGeometry x="350" y="200" width="290" height="160" as="geometry" />
        </mxCell>
        <mxCell id="kvysxvHulO6KygtDhMEB-6" value="&lt;div&gt;Extended Header&lt;/div&gt;&lt;div&gt;(Variable Bytes, optional)&lt;br&gt;&lt;/div&gt;" style="rounded=0;whiteSpace=wrap;html=1;fillColor=#b1ddf0;strokeColor=#10739e;" vertex="1" parent="1">
          <mxGeometry x="350" y="160" width="290" height="40" as="geometry" />
        </mxCell>
        <mxCell id="kvysxvHulO6KygtDhMEB-7" value="&lt;div&gt;Padding&lt;br&gt;&lt;/div&gt;&lt;div&gt;(Variable Bytes, optional)&lt;br&gt;&lt;/div&gt;" style="rounded=0;whiteSpace=wrap;html=1;fillColor=#d0cee2;strokeColor=#56517e;" vertex="1" parent="1">
          <mxGeometry x="660" y="280" width="290" height="40" as="geometry" />
        </mxCell>
        <mxCell id="kvysxvHulO6KygtDhMEB-8" value="&lt;div&gt;Header&lt;/div&gt;&lt;div&gt;(10 Bytes)&lt;br&gt;&lt;/div&gt;" style="rounded=0;whiteSpace=wrap;html=1;fillColor=#dae8fc;strokeColor=#6c8ebf;" vertex="1" parent="1">
          <mxGeometry x="660" y="120" width="290" height="40" as="geometry" />
        </mxCell>
        <mxCell id="kvysxvHulO6KygtDhMEB-9" value="&lt;div&gt;Frames&lt;br&gt;&lt;/div&gt;&lt;div&gt;(Variable Bytes)&lt;br&gt;&lt;/div&gt;" style="rounded=0;whiteSpace=wrap;html=1;fillColor=#b0e3e6;strokeColor=#0e8088;" vertex="1" parent="1">
          <mxGeometry x="660" y="200" width="290" height="80" as="geometry" />
        </mxCell>
        <mxCell id="kvysxvHulO6KygtDhMEB-10" value="&lt;div&gt;Extended Header&lt;/div&gt;&lt;div&gt;(Variable Bytes, optional)&lt;br&gt;&lt;/div&gt;" style="rounded=0;whiteSpace=wrap;html=1;fillColor=#b1ddf0;strokeColor=#10739e;" vertex="1" parent="1">
          <mxGeometry x="660" y="160" width="290" height="40" as="geometry" />
        </mxCell>
        <mxCell id="kvysxvHulO6KygtDhMEB-11" value="&lt;div&gt;Footer&lt;br&gt;&lt;/div&gt;&lt;div&gt;(10 Bytes, optional)&lt;br&gt;&lt;/div&gt;" style="rounded=0;whiteSpace=wrap;html=1;fillColor=#bac8d3;strokeColor=#23445d;" vertex="1" parent="1">
          <mxGeometry x="660" y="320" width="290" height="40" as="geometry" />
        </mxCell>
        <mxCell id="kvysxvHulO6KygtDhMEB-12" value="&lt;font style=&quot;font-size: 18px;&quot;&gt;ID3v2.2&lt;/font&gt;" style="text;html=1;strokeColor=none;fillColor=none;align=center;verticalAlign=middle;whiteSpace=wrap;rounded=0;" vertex="1" parent="1">
          <mxGeometry x="120" y="80" width="115" height="30" as="geometry" />
        </mxCell>
        <mxCell id="kvysxvHulO6KygtDhMEB-13" value="&lt;font style=&quot;font-size: 18px;&quot;&gt;ID3v2.3&lt;/font&gt;" style="text;html=1;strokeColor=none;fillColor=none;align=center;verticalAlign=middle;whiteSpace=wrap;rounded=0;" vertex="1" parent="1">
          <mxGeometry x="437.5" y="80" width="115" height="30" as="geometry" />
        </mxCell>
        <mxCell id="kvysxvHulO6KygtDhMEB-14" value="&lt;font style=&quot;font-size: 18px;&quot;&gt;ID3v2.4&lt;/font&gt;" style="text;html=1;strokeColor=none;fillColor=none;align=center;verticalAlign=middle;whiteSpace=wrap;rounded=0;" vertex="1" parent="1">
          <mxGeometry x="747.5" y="80" width="115" height="30" as="geometry" />
        </mxCell>
      </root>
    </mxGraphModel>
  </diagram>
</mxfile>
